<?xml version="1.0" standalone="no"?>
<!DOCTYPE svg PUBLIC "-//W3C//DTD SVG 20010904//EN"
 "http://www.w3.org/TR/2001/REC-SVG-20010904/DTD/svg10.dtd">
<svg version="1.0" xmlns="http://www.w3.org/2000/svg"
 width="260.000000pt" height="260.000000pt" viewBox="0 0 260.000000 260.000000"
 preserveAspectRatio="xMidYMid meet">
<metadata>
Created by potrace 1.14, written by Peter Selinger 2001-2017
</metadata>
<g transform="translate(0.000000,260.000000) scale(0.100000,-0.100000)"
fill="#000000" stroke="none">
<path d="M0 1305 l0 -1295 1300 0 1300 0 0 1295 0 1295 -1300 0 -1300 0 0
-1295z m1453 749 c160 -36 285 -129 346 -257 83 -174 79 -409 -11 -579 -27
-51 -116 -146 -177 -188 -21 -15 -20 -18 129 -240 l150 -225 -22 -17 c-60 -45
-193 -54 -274 -18 -72 31 -114 78 -235 258 l-109 162 -79 0 -78 0 -6 -72 c-15
-178 -161 -346 -318 -365 l-49 -6 0 629 c0 378 4 643 10 664 28 101 122 202
226 245 55 23 72 25 242 25 132 0 203 -4 255 -16z"/>
<path d="M1092 1503 l3 -208 90 -3 c119 -4 164 3 214 36 57 37 83 93 82 177
-1 106 -44 168 -136 194 -22 6 -88 11 -148 11 l-107 0 2 -207z"/>
</g>
</svg>
